<svg xmlns="http://www.w3.org/2000/svg" xmlns:xlink="http://www.w3.org/1999/xlink" width="2304" zoomAndPan="magnify" viewBox="0 0 1728 863.999991" height="1152" preserveAspectRatio="xMidYMid meet" version="1.0"><defs><clipPath id="f037929fec"><path d="M 0 0 L 1728 0 L 1728 864 L 0 864 Z M 0 0 " clip-rule="nonzero"/></clipPath><clipPath id="9b165d2215"><path d="M -7.265625 -6.398438 L 1719.542969 -6.398438 C 1725.90625 -6.398438 1732.011719 -3.871094 1736.511719 0.632812 C 1741.011719 5.132812 1743.542969 11.238281 1743.542969 17.601562 L 1743.542969 840 C 1743.542969 846.363281 1741.011719 852.46875 1736.511719 856.96875 C 1732.011719 861.472656 1725.90625 864 1719.542969 864 L -7.265625 864 C -13.632812 864 -19.734375 861.472656 -24.238281 856.96875 C -28.738281 852.46875 -31.265625 846.363281 -31.265625 840 L -31.265625 17.601562 C -31.265625 11.238281 -28.738281 5.132812 -24.238281 0.632812 C -19.734375 -3.871094 -13.632812 -6.398438 -7.265625 -6.398438 Z M -7.265625 -6.398438 " clip-rule="nonzero"/></clipPath><clipPath id="b0f8874739"><path d="M 0 0 L 1728 0 L 1728 864 L 0 864 Z M 0 0 " clip-rule="nonzero"/></clipPath><clipPath id="d9cf8f659e"><path d="M -7.265625 -6.398438 L 1719.542969 -6.398438 C 1725.90625 -6.398438 1732.011719 -3.871094 1736.511719 0.632812 C 1741.011719 5.132812 1743.542969 11.238281 1743.542969 17.601562 L 1743.542969 840 C 1743.542969 846.363281 1741.011719 852.46875 1736.511719 856.96875 C 1732.011719 861.472656 1725.90625 864 1719.542969 864 L -7.265625 864 C -13.632812 864 -19.734375 861.472656 -24.238281 856.96875 C -28.738281 852.46875 -31.265625 846.363281 -31.265625 840 L -31.265625 17.601562 C -31.265625 11.238281 -28.738281 5.132812 -24.238281 0.632812 C -19.734375 -3.871094 -13.632812 -6.398438 -7.265625 -6.398438 Z M -7.265625 -6.398438 " clip-rule="nonzero"/></clipPath><clipPath id="ab4e8b63e7"><rect x="0" width="1728" y="0" height="864"/></clipPath><clipPath id="09db7fb7d3"><path d="M 0 233 L 315.152344 233 L 315.152344 403.148438 L 0 403.148438 Z M 0 233 " clip-rule="nonzero"/></clipPath><clipPath id="2fcc530a30"><path d="M 1462.34375 563.417969 L 1728 563.417969 L 1728 733.621094 L 1462.34375 733.621094 Z M 1462.34375 563.417969 " clip-rule="nonzero"/></clipPath><clipPath id="f953cc0a83"><rect x="0" width="1728" y="0" height="864"/></clipPath></defs><rect x="-172.8" width="2073.6" fill="#ffffff" y="-86.399999" height="1036.79999" fill-opacity="1"/><rect x="-172.8" width="2073.6" fill="#ffffff" y="-86.399999" height="1036.79999" fill-opacity="1"/><g transform="matrix(1, 0, 0, 1, 0, 0.000000000000011197)"><g clip-path="url(#f953cc0a83)"><g clip-path="url(#f037929fec)"><g clip-path="url(#9b165d2215)"><g transform="matrix(1, 0, 0, 1, 0, 0.000000000000011197)"><g clip-path="url(#ab4e8b63e7)"><g clip-path="url(#b0f8874739)"><g clip-path="url(#d9cf8f659e)"><rect x="-628.992" width="2985.984" fill="#d5eeff" y="-314.495997" height="1492.991985" fill-opacity="1"/></g></g></g></g></g></g><g clip-path="url(#09db7fb7d3)"><path fill="#ffffff" d="M 315.246094 373.34375 C 315.246094 386.75 304.367188 397.621094 290.941406 397.621094 C 284.03125 397.621094 277.757812 394.683594 273.308594 390.082031 C 265.761719 395.796875 256.390625 399.207031 246.222656 399.207031 C 234.945312 399.207031 224.621094 395.003906 216.675781 388.101562 C 210.480469 394.050781 202.0625 397.621094 192.847656 397.621094 C 178.234375 397.621094 165.683594 388.496094 160.679688 375.644531 C 154.007812 377.707031 146.859375 378.738281 139.472656 378.738281 C 128.195312 378.738281 117.472656 376.199219 107.941406 371.597656 C 106.429688 389.210938 91.578125 403.015625 73.546875 403.015625 C 66.160156 403.015625 59.332031 400.714844 53.691406 396.746094 C 45.511719 400.792969 36.21875 403.015625 26.449219 403.015625 C 8.257812 403.015625 -8.105469 395.238281 -19.382812 382.785156 C -25.976562 388.574219 -34.632812 392.066406 -44.164062 392.066406 C -65.054688 392.144531 -81.890625 375.246094 -81.890625 354.539062 C -81.890625 333.832031 -65.054688 316.933594 -44.242188 316.933594 C -39.796875 316.933594 -35.507812 317.726562 -31.535156 319.15625 C -22.640625 295.910156 -0.0820312 279.328125 26.367188 279.328125 C 42.015625 279.328125 56.3125 285.121094 67.273438 294.722656 C 72.675781 259.8125 102.9375 233.078125 139.394531 233.078125 C 172.117188 233.078125 199.757812 254.578125 209.050781 284.167969 C 221.285156 288.214844 230.578125 298.925781 232.402344 312.015625 C 236.691406 310.667969 241.300781 309.875 246.066406 309.875 C 268.941406 309.875 287.765625 327.011719 290.464844 349.066406 C 290.546875 349.066406 290.703125 349.066406 290.78125 349.066406 C 304.367188 348.988281 315.246094 359.933594 315.246094 373.34375 Z M 315.246094 373.34375 " fill-opacity="1" fill-rule="nonzero"/></g><g clip-path="url(#2fcc530a30)"><path fill="#ffffff" d="M 1859.484375 703.816406 C 1859.484375 717.226562 1848.601562 728.09375 1835.179688 728.09375 C 1828.269531 728.09375 1821.992188 725.160156 1817.546875 720.558594 C 1810 726.269531 1800.628906 729.683594 1790.460938 729.683594 C 1779.183594 729.683594 1768.855469 725.476562 1760.914062 718.574219 C 1754.71875 724.523438 1746.296875 728.09375 1737.085938 728.09375 C 1722.46875 728.09375 1709.921875 718.972656 1704.917969 706.117188 C 1698.246094 708.179688 1691.097656 709.214844 1683.710938 709.214844 C 1672.429688 709.214844 1661.707031 706.675781 1652.175781 702.074219 C 1650.667969 719.683594 1635.8125 733.488281 1617.785156 733.488281 C 1610.398438 733.488281 1603.566406 731.1875 1597.925781 727.222656 C 1589.746094 731.269531 1580.453125 733.488281 1570.683594 733.488281 C 1552.496094 733.488281 1536.132812 725.714844 1524.855469 713.257812 C 1518.261719 719.050781 1509.605469 722.542969 1500.070312 722.542969 C 1479.183594 722.621094 1462.34375 705.722656 1462.34375 685.015625 C 1462.34375 664.308594 1479.183594 647.410156 1499.992188 647.410156 C 1504.441406 647.410156 1508.730469 648.203125 1512.703125 649.632812 C 1521.597656 626.386719 1544.15625 609.804688 1570.605469 609.804688 C 1586.25 609.804688 1600.546875 615.597656 1611.507812 625.195312 C 1616.910156 590.289062 1647.171875 563.550781 1683.628906 563.550781 C 1716.355469 563.550781 1743.996094 585.050781 1753.289062 614.644531 C 1765.519531 618.691406 1774.8125 629.402344 1776.640625 642.492188 C 1780.929688 641.140625 1785.535156 640.347656 1790.300781 640.347656 C 1813.175781 640.347656 1832 657.484375 1834.703125 679.542969 C 1834.78125 679.542969 1834.941406 679.542969 1835.019531 679.542969 C 1848.601562 679.460938 1859.484375 690.410156 1859.484375 703.816406 Z M 1859.484375 703.816406 " fill-opacity="1" fill-rule="nonzero"/></g></g></g></svg>