<svg xmlns="http://www.w3.org/2000/svg" xmlns:xlink="http://www.w3.org/1999/xlink" width="2304" zoomAndPan="magnify" viewBox="0 0 1728 1727.999927" height="2304" preserveAspectRatio="xMidYMid meet" version="1.0"><defs><clipPath id="358c6a428e"><path d="M 457.769531 267.527344 L 1270.117188 267.527344 L 1270.117188 1555.195312 L 457.769531 1555.195312 Z M 457.769531 267.527344 " clip-rule="nonzero"/></clipPath></defs><rect x="-172.8" width="2073.6" fill="#ffffff" y="-172.799993" height="2073.599912" fill-opacity="1"/><rect x="-172.8" width="2073.6" fill="#ffffff" y="-172.799993" height="2073.599912" fill-opacity="1"/><g clip-path="url(#358c6a428e)"><path fill="#dcb7ff" d="M 1270.128906 426.296875 C 1266.066406 719.648438 1248.984375 994.945312 1218.421875 1286.726562 C 1216.507812 1304.960938 1214.425781 1323.632812 1206.316406 1340.074219 C 1196.886719 1359.179688 1180.207031 1373.539062 1163.726562 1387.03125 C 1102.527344 1437.089844 970.496094 1523.972656 965.609375 1527.402344 C 940.578125 1516.851562 916.667969 1503.621094 894.40625 1488.042969 C 853.675781 1515.980469 827.492188 1525.507812 772.617188 1554.183594 C 717.59375 1557.894531 661.035156 1551.820312 610.8125 1529.078125 C 560.578125 1506.332031 476.941406 1461.761719 457.769531 1410.066406 L 457.769531 1210.199219 C 516.320312 1170.566406 558.542969 1149.109375 616.242188 1115.542969 C 616.832031 1095.238281 615.65625 1083.035156 616.242188 1062.683594 C 648.460938 1037.949219 675.90625 1020.746094 705.5625 1008.457031 C 716.167969 814.574219 730.789062 557.273438 717.105469 363.585938 C 745.292969 350.425781 804.050781 300.179688 851.421875 284.328125 C 877.5625 275.574219 904.410156 266.722656 931.957031 267.8125 C 952.816406 268.636719 973 275.148438 992.75 281.921875 C 1091.378906 315.714844 1178.117188 377.261719 1270.128906 426.296875 " fill-opacity="1" fill-rule="nonzero"/></g><path fill="#ece7e4" d="M 1168.40625 284.023438 C 1168.046875 344.359375 1166.46875 384.71875 1166.121094 445.046875 C 1134.296875 465.339844 1101.222656 483.683594 1067.121094 499.851562 C 1057.464844 504.445312 1048.320312 512.886719 1038.652344 508.300781 C 1009.039062 494.234375 979.371094 480.15625 951.105469 463.53125 C 913.871094 441.648438 879.066406 415.378906 842.015625 393.375 C 842.015625 393.363281 842.015625 393.363281 842.015625 393.351562 C 842.179688 328.429688 841.699219 297.109375 845.5 232.285156 C 844.585938 201.496094 861.6875 171.675781 897.226562 164.816406 C 960.414062 152.621094 1042.398438 177.324219 1098.792969 203.511719 C 1117.53125 212.207031 1135.996094 222.617188 1149.660156 238.089844 C 1160.839844 250.75 1168.417969 267.351562 1168.40625 284.023438 " fill-opacity="1" fill-rule="nonzero"/><path fill="#cdc4bb" d="M 1160.820312 276.75 C 1153.839844 288.410156 1142.734375 297.785156 1130.367188 303.738281 C 1112.71875 312.253906 1092.71875 314.59375 1073.121094 314.800781 C 1025.195312 315.324219 977.769531 303.847656 932.761719 287.375 C 910.714844 279.320312 888.679688 269.769531 871.246094 254.039062 C 860.9375 244.742188 853.707031 233.070312 849.59375 220.613281 C 873.382812 250.566406 911.183594 266.601562 947.1875 279.515625 C 981.65625 291.882812 1016.929688 303.457031 1053.492188 305.664062 C 1090.039062 307.875 1132.554688 300.027344 1160.820312 276.75 " fill-opacity="1" fill-rule="nonzero"/><path fill="#b875f7" d="M 669.058594 1331.644531 C 612.085938 1355.140625 555.121094 1378.625 498.148438 1402.109375 C 550.441406 1397.285156 584.222656 1377.699219 632.488281 1357.015625 C 644.824219 1351.722656 665.355469 1342.261719 669.058594 1331.644531 Z M 745.609375 1527.195312 C 696.320312 1534.671875 645.574219 1521.261719 601.546875 1497.863281 C 557.527344 1474.464844 519.359375 1441.542969 482.785156 1407.671875 C 486.5 1350.667969 484.996094 1288.597656 477.667969 1231.941406 C 511.277344 1226.574219 544.289062 1242.25 574.707031 1257.503906 C 636.113281 1288.28125 699.914062 1321.042969 740.390625 1376.523438 C 743.484375 1426.386719 749.503906 1477.382812 745.609375 1527.195312 Z M 1188.996094 425.101562 C 1188.429688 422.75 1186.097656 421.3125 1183.988281 420.136719 C 1178.140625 416.878906 1172.304688 413.625 1166.46875 410.378906 C 1166.316406 421.09375 1166.195312 432.265625 1166.121094 444.230469 C 1166.140625 444.273438 1166.164062 444.339844 1166.195312 444.390625 C 1172.152344 441.878906 1177.902344 437.140625 1183.398438 433.539062 C 1186.414062 431.554688 1189.84375 428.617188 1188.996094 425.101562 Z M 842.234375 325.765625 C 827.808594 333.375 813.371094 340.972656 798.933594 348.582031 C 796.375 349.933594 793.632812 351.480469 792.519531 354.148438 C 790.777344 358.359375 793.949219 362.957031 797.375 365.960938 C 802.113281 370.097656 807.65625 373.179688 813.152344 376.214844 C 821.917969 381.070312 831.605469 388.726562 840.957031 392.023438 C 841.316406 392.15625 841.667969 392.230469 842.015625 392.320312 C 842.082031 366.179688 842.046875 345.46875 842.234375 325.765625 Z M 915.90625 1438.417969 C 916.125 1445.050781 916.332031 1451.789062 914.632812 1458.191406 C 912.652344 1465.613281 909.613281 1477.199219 903.417969 1481.738281 C 909.691406 1477.265625 916.320312 1472.34375 923.464844 1466.855469 C 919.871094 1404.492188 933.597656 1319.070312 923.464844 1257.4375 C 886.535156 1205.449219 833.589844 1156.742188 771.171875 1125.613281 C 729.277344 1104.722656 672.761719 1082.164062 632.488281 1106.015625 C 664.910156 1096.328125 701.546875 1103.90625 733.121094 1116.054688 C 764.691406 1128.214844 793.011719 1147.441406 820.371094 1167.355469 C 849.179688 1188.3125 886.457031 1223.960938 911.378906 1257.601562 C 913.316406 1316.4375 913.96875 1379.582031 915.90625 1438.417969 Z M 782.546875 1463.722656 C 782.789062 1453.617188 782.667969 1443.515625 782.558594 1433.410156 C 782.320312 1412.921875 783.210938 1391.027344 782.972656 1370.535156 C 750.625 1318.351562 700.71875 1261.519531 645.542969 1234.605469 C 618.878906 1221.609375 591.714844 1209.078125 562.832031 1202.328125 C 533.945312 1195.578125 502.273438 1194.757812 474.5 1205.191406 C 491.8125 1201.835938 510.167969 1203.273438 527.730469 1206.125 C 627.742188 1222.371094 719.511719 1283.816406 772.617188 1370.101562 C 771.3125 1428.152344 770.679688 1485.734375 772.617188 1543.765625 C 775.460938 1518.507812 781.949219 1489.132812 782.546875 1463.722656 Z M 964.136719 1498.101562 C 959.882812 1396.960938 965.617188 1322.023438 965.519531 1215.859375 C 931.203125 1163.382812 872.085938 1124.894531 816.539062 1095.816406 C 767.523438 1070.152344 705.292969 1049.75 638.269531 1058.699219 C 669.441406 1059.222656 703.789062 1061.824219 733.566406 1071.070312 C 749.863281 1076.121094 765.25 1083.675781 780.535156 1091.277344 C 801.078125 1101.488281 821.558594 1111.832031 841.960938 1122.316406 C 882.667969 1143.230469 931.988281 1180.257812 957.769531 1218.070312 C 955.558594 1308.042969 959.207031 1408.238281 964.136719 1498.101562 Z M 1032.46875 1150.328125 C 1031.367188 957.765625 1030.257812 765.199219 1029.167969 572.632812 C 1023.191406 578.394531 1019.707031 592.492188 1019.28125 600.769531 C 1010.007812 779.417969 1018.75 971.972656 1032.46875 1150.328125 Z M 1248.234375 435.128906 C 1186.164062 468.726562 1122.09375 511.816406 1059.382812 538.851562 C 1051.957031 542.050781 1044.226562 545.296875 1036.148438 544.980469 C 1028.167969 544.675781 1020.785156 540.917969 1013.6875 537.25 C 930.289062 494.125 819.511719 417.902344 736.113281 374.777344 C 740.175781 381.605469 747.066406 387.8125 753.488281 392.472656 C 799.097656 425.566406 848.382812 453.199219 897.539062 480.746094 C 912.871094 489.335938 928.210938 497.925781 943.550781 506.515625 C 970.191406 521.453125 996.867188 536.390625 1024.464844 549.464844 C 1029.246094 551.730469 1034.175781 553.972656 1039.445312 554.355469 C 1048.308594 554.996094 1056.605469 550.328125 1064.140625 545.644531 C 1081.710938 534.714844 1126.566406 514.007812 1150.136719 498.742188 C 1190.355469 472.6875 1208.527344 462.183594 1248.234375 435.128906 Z M 990.160156 1194.203125 C 996.984375 1190.21875 1004.53125 1187.191406 1010.222656 1181.714844 C 1013.328125 1178.722656 1015.917969 1174.464844 1014.882812 1170.261719 C 1014.21875 1167.5625 1012.183594 1165.441406 1010.214844 1163.480469 C 998.738281 1152.003906 988.070312 1138.679688 974.796875 1129.335938 C 945.640625 1108.816406 906.054688 1079.605469 873.761719 1064.492188 C 834.207031 1045.996094 792.816406 1031.808594 751.496094 1017.65625 C 739.414062 1013.519531 727.554688 1008.617188 715.472656 1004.480469 C 836.148438 1022.511719 937.671875 1082.914062 1019.632812 1157.992188 C 1035.234375 1172.277344 1032.597656 1177.503906 1031.042969 1179.496094 C 1029.484375 1181.476562 1027.296875 1182.847656 1025.140625 1184.167969 C 1009.277344 1193.835938 992.730469 1202.390625 975.667969 1209.75 C 977.203125 1202 983.332031 1198.1875 990.160156 1194.203125 " fill-opacity="1" fill-rule="nonzero"/></svg>